<svg width="900" height="620" viewBox="0 0 900 620" fill="none" xmlns="http://www.w3.org/2000/svg">
  <rect width="900" height="620" rx="34" fill="#101723"/>
  <rect x="42" y="42" width="816" height="536" rx="30" fill="#151F2E" stroke="#2B3B55" stroke-width="3"/>
  <text x="88" y="105" font-family="Arial, sans-serif" font-size="34" font-weight="700" fill="#F6F2E9">AI/ML Leadership Readiness</text>
  <text x="90" y="140" font-family="Arial, sans-serif" font-size="16" font-weight="700" letter-spacing="4" fill="#72E2D1">SELF-ASSESSMENT ARTIFACT</text>

  <g transform="translate(88 180)">
    <rect width="320" height="320" rx="26" fill="#0D1320" stroke="#2B3B55" stroke-width="2"/>
    <circle cx="160" cy="160" r="112" fill="#142236"/>
    <circle cx="160" cy="160" r="112" fill="none" stroke="#283A55" stroke-width="28"/>
    <path d="M160 48A112 112 0 1 1 56 201" stroke="#72E2D1" stroke-width="28" stroke-linecap="round"/>
    <circle cx="160" cy="160" r="67" fill="#101723" stroke="#2B3B55" stroke-width="2"/>
    <text x="160" y="152" text-anchor="middle" font-family="Arial, sans-serif" font-size="48" font-weight="700" fill="#F6F2E9">8</text>
    <text x="160" y="181" text-anchor="middle" font-family="Arial, sans-serif" font-size="14" font-weight="700" letter-spacing="2" fill="#AAB7C7">READINESS</text>
    <text x="160" y="204" text-anchor="middle" font-family="Arial, sans-serif" font-size="14" font-weight="700" letter-spacing="2" fill="#AAB7C7">POINTS</text>
  </g>

  <g transform="translate(448 180)" font-family="Arial, sans-serif">
    <rect width="364" height="320" rx="26" fill="#0D1320" stroke="#2B3B55" stroke-width="2"/>
    <text x="30" y="50" font-size="22" font-weight="700" fill="#F6F2E9">What the assessment shows</text>
    <g transform="translate(30 78)">
      <rect width="304" height="38" rx="19" fill="#183449"/>
      <text x="18" y="25" font-size="15" font-weight="700" fill="#72E2D1">AI/ML concept awareness</text>
    </g>
    <g transform="translate(30 126)">
      <rect width="304" height="38" rx="19" fill="#2B2742"/>
      <text x="18" y="25" font-size="15" font-weight="700" fill="#F5C66B">Change management mindset</text>
    </g>
    <g transform="translate(30 174)">
      <rect width="304" height="38" rx="19" fill="#183449"/>
      <text x="18" y="25" font-size="15" font-weight="700" fill="#72E2D1">Stakeholder communication</text>
    </g>
    <g transform="translate(30 222)">
      <rect width="304" height="38" rx="19" fill="#2B2742"/>
      <text x="18" y="25" font-size="15" font-weight="700" fill="#F5C66B">Training + adoption planning</text>
    </g>
    <g transform="translate(30 270)">
      <rect width="304" height="38" rx="19" fill="#183449"/>
      <text x="18" y="25" font-size="15" font-weight="700" fill="#72E2D1">Strategic alignment for AI</text>
    </g>
  </g>

  <g transform="translate(88 525)" font-family="Arial, sans-serif">
    <text x="0" y="0" font-size="16" font-weight="700" fill="#AAB7C7">Technical Skill</text>
    <line x1="135" y1="-5" x2="320" y2="-5" stroke="#72E2D1" stroke-width="12" stroke-linecap="round"/>
    <text x="385" y="0" font-size="16" font-weight="700" fill="#AAB7C7">People Leadership</text>
    <line x1="545" y1="-5" x2="724" y2="-5" stroke="#F5C66B" stroke-width="12" stroke-linecap="round"/>
  </g>
</svg>
