<svg width="900" height="620" viewBox="0 0 900 620" fill="none" xmlns="http://www.w3.org/2000/svg">
  <rect width="900" height="620" rx="32" fill="#FCFCFD"/>
  <text x="450" y="82" text-anchor="middle" font-family="Arial, sans-serif" font-size="56" font-weight="700" fill="#D06018">Deep Learning</text>
  <line x1="70" y1="110" x2="830" y2="110" stroke="#F1D8C9" stroke-width="2"/>
  <text x="450" y="170" text-anchor="middle" font-family="Arial, sans-serif" font-size="34" font-weight="700" fill="#183D77">Face ID Recognition:</text>
  <line x1="255" y1="182" x2="645" y2="182" stroke="#7597C9" stroke-width="2"/>
  <text x="128" y="250" text-anchor="middle" font-family="Arial, sans-serif" font-size="22" font-weight="700" fill="#183D77">Input Image</text>

  <g transform="translate(30 270)">
    <rect x="0" y="0" width="174" height="234" rx="28" fill="#213049" stroke="#101A2A" stroke-width="5"/>
    <rect x="14" y="24" width="146" height="184" rx="18" fill="#8AB6E8"/>
    <ellipse cx="87" cy="114" rx="50" ry="62" fill="#EFC6AE"/>
    <path d="M42 110C42 66 58 35 87 35C116 35 132 66 132 110V127H42V110Z" fill="#5B4337"/>
    <ellipse cx="69" cy="107" rx="6" ry="7" fill="#463129"/>
    <ellipse cx="105" cy="107" rx="6" ry="7" fill="#463129"/>
    <path d="M79 140C86 146 95 146 101 140" stroke="#B0665D" stroke-width="4" stroke-linecap="round"/>
    <g stroke="#76D7FF" stroke-width="4">
      <line x1="18" y1="64" x2="46" y2="64"/>
      <line x1="18" y1="64" x2="18" y2="92"/>
      <line x1="156" y1="64" x2="128" y2="64"/>
      <line x1="156" y1="64" x2="156" y2="92"/>
      <line x1="18" y1="168" x2="46" y2="168"/>
      <line x1="18" y1="168" x2="18" y2="140"/>
      <line x1="156" y1="168" x2="128" y2="168"/>
      <line x1="156" y1="168" x2="156" y2="140"/>
    </g>
  </g>

  <g transform="translate(236 248)">
    <g stroke="#22324F" stroke-width="3" opacity=".92">
      <line x1="44" y1="60" x2="154" y2="72"/>
      <line x1="44" y1="60" x2="154" y2="132"/>
      <line x1="44" y1="60" x2="154" y2="192"/>
      <line x1="44" y1="60" x2="154" y2="252"/>
      <line x1="44" y1="120" x2="154" y2="72"/>
      <line x1="44" y1="120" x2="154" y2="132"/>
      <line x1="44" y1="120" x2="154" y2="192"/>
      <line x1="44" y1="120" x2="154" y2="252"/>
      <line x1="44" y1="180" x2="154" y2="72"/>
      <line x1="44" y1="180" x2="154" y2="132"/>
      <line x1="44" y1="180" x2="154" y2="192"/>
      <line x1="44" y1="180" x2="154" y2="252"/>
      <line x1="44" y1="240" x2="154" y2="72"/>
      <line x1="44" y1="240" x2="154" y2="132"/>
      <line x1="44" y1="240" x2="154" y2="192"/>
      <line x1="44" y1="240" x2="154" y2="252"/>
      <line x1="154" y1="72" x2="258" y2="94"/>
      <line x1="154" y1="72" x2="258" y2="160"/>
      <line x1="154" y1="132" x2="258" y2="94"/>
      <line x1="154" y1="132" x2="258" y2="160"/>
      <line x1="154" y1="132" x2="258" y2="226"/>
      <line x1="154" y1="192" x2="258" y2="94"/>
      <line x1="154" y1="192" x2="258" y2="160"/>
      <line x1="154" y1="192" x2="258" y2="226"/>
      <line x1="154" y1="252" x2="258" y2="160"/>
      <line x1="154" y1="252" x2="258" y2="226"/>
      <line x1="258" y1="94" x2="352" y2="120"/>
      <line x1="258" y1="160" x2="352" y2="190"/>
      <line x1="258" y1="226" x2="352" y2="258"/>
    </g>
    <g>
      <circle cx="44" cy="60" r="18" fill="#FFF4DF" stroke="#D8C5A5" stroke-width="3"/>
      <circle cx="44" cy="120" r="18" fill="#FFF4DF" stroke="#D8C5A5" stroke-width="3"/>
      <circle cx="44" cy="180" r="18" fill="#FFF4DF" stroke="#D8C5A5" stroke-width="3"/>
      <circle cx="44" cy="240" r="18" fill="#FFF4DF" stroke="#D8C5A5" stroke-width="3"/>
      <circle cx="154" cy="72" r="18" fill="#43A2FF" stroke="#2A71B0" stroke-width="3"/>
      <circle cx="154" cy="132" r="18" fill="#43A2FF" stroke="#2A71B0" stroke-width="3"/>
      <circle cx="154" cy="192" r="18" fill="#43A2FF" stroke="#2A71B0" stroke-width="3"/>
      <circle cx="154" cy="252" r="18" fill="#43A2FF" stroke="#2A71B0" stroke-width="3"/>
      <circle cx="258" cy="94" r="18" fill="#FF9E2C" stroke="#CC6C0E" stroke-width="3"/>
      <circle cx="258" cy="160" r="18" fill="#FF9E2C" stroke="#CC6C0E" stroke-width="3"/>
      <circle cx="258" cy="226" r="18" fill="#FF9E2C" stroke="#CC6C0E" stroke-width="3"/>
      <circle cx="352" cy="120" r="18" fill="#FFC33A" stroke="#D2920A" stroke-width="3"/>
      <circle cx="352" cy="190" r="18" fill="#FFC33A" stroke="#D2920A" stroke-width="3"/>
      <circle cx="352" cy="258" r="18" fill="#FFC33A" stroke="#D2920A" stroke-width="3"/>
    </g>
    <text x="186" y="344" text-anchor="middle" font-family="Arial, sans-serif" font-size="24" font-weight="700" fill="#183D77">Neural Network</text>
  </g>

  <g transform="translate(692 280)">
    <rect x="0" y="0" width="160" height="174" rx="22" fill="#FFE2A6" stroke="#D08A2E" stroke-width="4"/>
    <rect x="14" y="18" width="132" height="98" rx="12" fill="#F7CE8A"/>
    <ellipse cx="80" cy="72" rx="34" ry="39" fill="#B97F58"/>
    <path d="M50 70C50 42 65 24 80 24C95 24 110 42 110 70V82H50V70Z" fill="#574339"/>
    <path d="M74 82C77 88 83 88 86 82" stroke="#885C49" stroke-width="4" stroke-linecap="round"/>
    <g stroke="#FCFCFD" stroke-width="5">
      <line x1="18" y1="18" x2="46" y2="18"/><line x1="18" y1="18" x2="18" y2="46"/>
      <line x1="142" y1="18" x2="114" y2="18"/><line x1="142" y1="18" x2="142" y2="46"/>
      <line x1="18" y1="116" x2="46" y2="116"/><line x1="18" y1="116" x2="18" y2="88"/>
      <line x1="142" y1="116" x2="114" y2="116"/><line x1="142" y1="116" x2="142" y2="88"/>
    </g>
    <circle cx="124" cy="132" r="22" fill="#5DBB63" stroke="#2B7D31" stroke-width="4"/>
    <path d="M114 132L121 139L136 123" stroke="#FCFCFD" stroke-width="5" stroke-linecap="round" stroke-linejoin="round"/>
    <text x="80" y="156" text-anchor="middle" font-family="Arial, sans-serif" font-size="18" font-weight="700" fill="#183D77">Identity Verified</text>
  </g>

  <g transform="translate(220 535)">
    <rect x="0" y="0" width="312" height="58" rx="4" fill="#F6E8D7" stroke="#E8D6BF"/>
    <line x1="0" y1="29" x2="312" y2="29" stroke="#E8D6BF"/>
    <text x="156" y="22" text-anchor="middle" font-family="Arial, sans-serif" font-size="14" font-weight="700" fill="#183D77">Feature Extraction</text>
    <text x="156" y="50" text-anchor="middle" font-family="Arial, sans-serif" font-size="14" font-weight="700" fill="#183D77">Layers of Neurons</text>
  </g>
</svg>
