<svg width="1200" height="760" viewBox="0 0 1200 760" fill="none" xmlns="http://www.w3.org/2000/svg">
  <rect width="1200" height="760" rx="30" fill="#FBFBFD"/>
  <text x="600" y="72" text-anchor="middle" fill="#232838" font-family="Arial, sans-serif" font-size="34" font-weight="700">Deep Learning Example: Face ID-Style Recognition</text>
  <rect x="96" y="126" width="1008" height="556" rx="26" fill="#FFFFFF" stroke="#E7EBF3" stroke-width="2"/>
  <rect x="140" y="180" width="300" height="430" rx="26" fill="#F4F7FD" stroke="#DCE5F6"/>
  <circle cx="290" cy="290" r="72" fill="#FFD8C2"/>
  <path d="M224 268C233 229 258 204 290 204C327 204 357 236 357 276V296H342C333 268 313 250 288 250H268C247 250 229 259 218 275L224 268Z" fill="#222A3D"/>
  <rect x="222" y="356" width="136" height="168" rx="38" fill="#3B5576"/>
  <circle cx="262" cy="288" r="7" fill="#222A3D"/>
  <circle cx="318" cy="288" r="7" fill="#222A3D"/>
  <path d="M282 324C292 331 304 331 314 324" stroke="#D5868A" stroke-width="6" stroke-linecap="round"/>
  <circle cx="252" cy="314" r="9" stroke="#8CB4D9" stroke-width="3"/>
  <circle cx="328" cy="314" r="9" stroke="#8CB4D9" stroke-width="3"/>
  <path d="M264 314H316" stroke="#8CB4D9" stroke-width="3"/>
  <circle cx="290" cy="290" r="118" stroke="#7FA5FF" stroke-width="2" stroke-dasharray="8 10"/>
  <circle cx="290" cy="290" r="145" stroke="#A0C4FF" stroke-width="2" stroke-dasharray="8 10"/>
  <path d="M468 292H694" stroke="#8CB4D9" stroke-width="8" stroke-linecap="round"/>
  <path d="M662 262L708 292L662 322" fill="#8CB4D9"/>
  <rect x="726" y="208" width="286" height="164" rx="24" fill="#EEF7F3" stroke="#D8ECDD"/>
  <text x="869" y="254" text-anchor="middle" fill="#416055" font-family="Arial, sans-serif" font-size="25" font-weight="700">Deep Learning Model</text>
  <text x="869" y="296" text-anchor="middle" fill="#587065" font-family="Arial, sans-serif" font-size="20">Learns patterns directly from faces</text>
  <text x="869" y="328" text-anchor="middle" fill="#587065" font-family="Arial, sans-serif" font-size="20">Handles lighting, pose, and detail</text>
  <path d="M869 396V450" stroke="#8CB4D9" stroke-width="8" stroke-linecap="round"/>
  <path d="M840 422L869 462L898 422" fill="#8CB4D9"/>
  <rect x="700" y="478" width="338" height="140" rx="24" fill="#FFF6E9" stroke="#F2E2C3"/>
  <text x="869" y="522" text-anchor="middle" fill="#8A6532" font-family="Arial, sans-serif" font-size="24" font-weight="700">Output</text>
  <text x="869" y="560" text-anchor="middle" fill="#8A6532" font-family="Arial, sans-serif" font-size="20">Secure facial recognition decision</text>
  <text x="869" y="592" text-anchor="middle" fill="#8A6532" font-family="Arial, sans-serif" font-size="20">Learns from complex image signals</text>
  <rect x="476" y="478" width="188" height="140" rx="24" fill="#F8F9FC" stroke="#E6EAF2"/>
  <text x="506" y="522" fill="#495166" font-family="Arial, sans-serif" font-size="24" font-weight="700">Why DL fits</text>
  <text x="506" y="558" fill="#687287" font-family="Arial, sans-serif" font-size="20">• Strong for image-heavy data</text>
  <text x="506" y="588" fill="#687287" font-family="Arial, sans-serif" font-size="20">• Finds features automatically</text>
</svg>
