<svg width="1200" height="760" viewBox="0 0 1200 760" fill="none" xmlns="http://www.w3.org/2000/svg">
  <rect width="1200" height="760" rx="30" fill="#FCFCFD"/>
  <text x="600" y="72" text-anchor="middle" fill="#262B36" font-family="Arial, sans-serif" font-size="33" font-weight="700">When ML or DL Becomes the Better Choice</text>
  <text x="102" y="162" fill="#6A7183" font-family="Arial, sans-serif" font-size="18">10</text>
  <text x="106" y="238" fill="#6A7183" font-family="Arial, sans-serif" font-size="18">8</text>
  <text x="106" y="314" fill="#6A7183" font-family="Arial, sans-serif" font-size="18">6</text>
  <text x="106" y="390" fill="#6A7183" font-family="Arial, sans-serif" font-size="18">4</text>
  <text x="106" y="466" fill="#6A7183" font-family="Arial, sans-serif" font-size="18">2</text>
  <text x="106" y="542" fill="#6A7183" font-family="Arial, sans-serif" font-size="18">0</text>
  <line x1="150" y1="150" x2="1080" y2="150" stroke="#E8ECF3" stroke-width="2"/>
  <line x1="150" y1="226" x2="1080" y2="226" stroke="#E8ECF3" stroke-width="2"/>
  <line x1="150" y1="302" x2="1080" y2="302" stroke="#E8ECF3" stroke-width="2"/>
  <line x1="150" y1="378" x2="1080" y2="378" stroke="#E8ECF3" stroke-width="2"/>
  <line x1="150" y1="454" x2="1080" y2="454" stroke="#E8ECF3" stroke-width="2"/>
  <line x1="150" y1="530" x2="1080" y2="530" stroke="#B8C1D2" stroke-width="3"/>
  <line x1="150" y1="150" x2="150" y2="530" stroke="#B8C1D2" stroke-width="3"/>
  <polyline points="190,180 354,196 518,240 682,320 846,408 1010,470" fill="none" stroke="#355F79" stroke-width="5" stroke-linecap="round" stroke-linejoin="round"/>
  <polyline points="190,450 354,394 518,342 682,286 846,226 1010,178" fill="none" stroke="#D1822F" stroke-width="5" stroke-linecap="round" stroke-linejoin="round"/>
  <circle cx="190" cy="180" r="7" fill="#355F79"/>
  <circle cx="354" cy="196" r="7" fill="#355F79"/>
  <circle cx="518" cy="240" r="7" fill="#355F79"/>
  <circle cx="682" cy="320" r="7" fill="#355F79"/>
  <circle cx="846" cy="408" r="7" fill="#355F79"/>
  <circle cx="1010" cy="470" r="7" fill="#355F79"/>
  <circle cx="190" cy="450" r="7" fill="#D1822F"/>
  <circle cx="354" cy="394" r="7" fill="#D1822F"/>
  <circle cx="518" cy="342" r="7" fill="#D1822F"/>
  <circle cx="682" cy="286" r="7" fill="#D1822F"/>
  <circle cx="846" cy="226" r="7" fill="#D1822F"/>
  <circle cx="1010" cy="178" r="7" fill="#D1822F"/>
  <text x="190" y="594" text-anchor="middle" fill="#5F6678" font-family="Arial, sans-serif" font-size="17">Very Low</text>
  <text x="354" y="594" text-anchor="middle" fill="#5F6678" font-family="Arial, sans-serif" font-size="17">Low</text>
  <text x="518" y="594" text-anchor="middle" fill="#5F6678" font-family="Arial, sans-serif" font-size="17">Moderate</text>
  <text x="682" y="594" text-anchor="middle" fill="#5F6678" font-family="Arial, sans-serif" font-size="17">High</text>
  <text x="846" y="594" text-anchor="middle" fill="#5F6678" font-family="Arial, sans-serif" font-size="17">Very High</text>
  <text x="1010" y="594" text-anchor="middle" fill="#5F6678" font-family="Arial, sans-serif" font-size="17">Extreme</text>
  <text x="340" y="642" fill="#697184" font-family="Arial, sans-serif" font-size="18">Data Complexity and Unstructured Signal</text>
  <text transform="translate(48 410) rotate(-90)" fill="#697184" font-family="Arial, sans-serif" font-size="18">Approach Suitability</text>
  <rect x="778" y="98" width="22" height="22" rx="5" fill="#355F79"/>
  <text x="812" y="115" fill="#565D70" font-family="Arial, sans-serif" font-size="18">Machine Learning</text>
  <rect x="992" y="98" width="22" height="22" rx="5" fill="#D1822F"/>
  <text x="1026" y="115" fill="#565D70" font-family="Arial, sans-serif" font-size="18">Deep Learning</text>
</svg>
