<svg width="1200" height="760" viewBox="0 0 1200 760" fill="none" xmlns="http://www.w3.org/2000/svg">
  <rect width="1200" height="760" rx="30" fill="#FBFBFD"/>
  <text x="600" y="72" text-anchor="middle" fill="#232838" font-family="Arial, sans-serif" font-size="34" font-weight="700">Machine Learning Example: Zestimate-Style Pricing</text>
  <rect x="94" y="126" width="1012" height="556" rx="26" fill="#FFFFFF" stroke="#E7EBF3" stroke-width="2"/>
  <rect x="146" y="182" width="292" height="228" rx="22" fill="#F5F8FF" stroke="#DDE6F6"/>
  <text x="292" y="228" text-anchor="middle" fill="#4E5569" font-family="Arial, sans-serif" font-size="24" font-weight="700">Structured Home Features</text>
  <rect x="182" y="260" width="220" height="38" rx="12" fill="#E4EEFF"/>
  <text x="292" y="285" text-anchor="middle" fill="#56617A" font-family="Arial, sans-serif" font-size="20">Square footage</text>
  <rect x="182" y="312" width="220" height="38" rx="12" fill="#E4EEFF"/>
  <text x="292" y="337" text-anchor="middle" fill="#56617A" font-family="Arial, sans-serif" font-size="20">Bedrooms and baths</text>
  <rect x="182" y="364" width="220" height="38" rx="12" fill="#E4EEFF"/>
  <text x="292" y="389" text-anchor="middle" fill="#56617A" font-family="Arial, sans-serif" font-size="20">Zip code and taxes</text>
  <path d="M470 296H686" stroke="#8CB4D9" stroke-width="8" stroke-linecap="round"/>
  <path d="M654 266L700 296L654 326" fill="#8CB4D9"/>
  <rect x="714" y="220" width="266" height="152" rx="24" fill="#EEF7F3" stroke="#D8ECDD"/>
  <text x="847" y="262" text-anchor="middle" fill="#416055" font-family="Arial, sans-serif" font-size="25" font-weight="700">ML Model</text>
  <text x="847" y="304" text-anchor="middle" fill="#587065" font-family="Arial, sans-serif" font-size="20">Regression / boosted trees</text>
  <text x="847" y="336" text-anchor="middle" fill="#587065" font-family="Arial, sans-serif" font-size="20">Readable feature weights</text>
  <path d="M847 404V458" stroke="#8CB4D9" stroke-width="8" stroke-linecap="round"/>
  <path d="M818 430L847 470L876 430" fill="#8CB4D9"/>
  <rect x="674" y="486" width="346" height="132" rx="24" fill="#FFF6E9" stroke="#F2E2C3"/>
  <text x="847" y="530" text-anchor="middle" fill="#8A6532" font-family="Arial, sans-serif" font-size="24" font-weight="700">Output</text>
  <text x="847" y="568" text-anchor="middle" fill="#8A6532" font-family="Arial, sans-serif" font-size="20">Estimated home value</text>
  <text x="847" y="598" text-anchor="middle" fill="#8A6532" font-family="Arial, sans-serif" font-size="20">Clear reason behind the result</text>
  <rect x="146" y="474" width="390" height="144" rx="24" fill="#F8F9FC" stroke="#E6EAF2"/>
  <text x="176" y="520" fill="#495166" font-family="Arial, sans-serif" font-size="24" font-weight="700">Why ML fits here</text>
  <text x="176" y="556" fill="#687287" font-family="Arial, sans-serif" font-size="20">• Works well with tabular, structured inputs</text>
  <text x="176" y="586" fill="#687287" font-family="Arial, sans-serif" font-size="20">• Easier to explain to the end user</text>
  <text x="176" y="616" fill="#687287" font-family="Arial, sans-serif" font-size="20">• Lower computational cost than DL</text>
</svg>
