<svg width="900" height="620" viewBox="0 0 900 620" fill="none" xmlns="http://www.w3.org/2000/svg">
  <rect width="900" height="620" rx="32" fill="#FCFCFD"/>
  <text x="450" y="82" text-anchor="middle" font-family="Arial, sans-serif" font-size="56" font-weight="700" fill="#1757A6">Machine Learning</text>
  <line x1="70" y1="110" x2="830" y2="110" stroke="#D5DEEE" stroke-width="2"/>
  <text x="450" y="170" text-anchor="middle" font-family="Arial, sans-serif" font-size="34" font-weight="700" fill="#183D77">Home Price Prediction:</text>
  <line x1="225" y1="182" x2="675" y2="182" stroke="#7597C9" stroke-width="2"/>

  <g transform="translate(95 220)">
    <rect x="25" y="68" width="120" height="70" fill="#F9D48A" stroke="#D59A3C" stroke-width="4"/>
    <polygon points="12,72 85,20 158,72" fill="#2856A5"/>
    <rect x="32" y="72" width="107" height="8" fill="#183D77"/>
    <rect x="44" y="92" width="26" height="26" fill="#B6E8F1" stroke="#5C9BCC" stroke-width="3"/>
    <rect x="105" y="92" width="26" height="26" fill="#B6E8F1" stroke="#5C9BCC" stroke-width="3"/>
    <rect x="84" y="104" width="18" height="34" fill="#C75C4A"/>
    <ellipse cx="85" cy="148" rx="92" ry="12" fill="#E8EDF6"/>
    <text x="85" y="192" text-anchor="middle" font-family="Arial, sans-serif" font-size="18" font-weight="700" fill="#183D77">Size: 2000 sq ft</text>
  </g>

  <g transform="translate(355 220)">
    <polygon points="46,124 88,58 160,74 144,130" fill="#94D37C" stroke="#4D8E44" stroke-width="3"/>
    <polyline points="54,122 86,86 108,98 136,76" stroke="#F5D34F" stroke-width="6" fill="none"/>
    <circle cx="98" cy="50" r="30" fill="#20B8DF" stroke="#1673A1" stroke-width="4"/>
    <circle cx="98" cy="50" r="12" fill="#FCFCFD"/>
    <path d="M98 78C98 78 70 43 70 28C70 13 82 2 98 2C114 2 126 13 126 28C126 43 98 78 98 78Z" fill="#1C82BA" opacity=".22"/>
    <ellipse cx="102" cy="148" rx="92" ry="12" fill="#E8EDF6"/>
    <text x="102" y="192" text-anchor="middle" font-family="Arial, sans-serif" font-size="18" font-weight="700" fill="#183D77">Location: Suburb</text>
  </g>

  <g transform="translate(620 220)">
    <rect x="38" y="30" width="102" height="130" rx="6" fill="#FFF7EC" stroke="#B07A3C" stroke-width="4"/>
    <rect x="67" y="16" width="44" height="20" rx="4" fill="#8C99A8"/>
    <rect x="79" y="20" width="20" height="8" rx="3" fill="#DDE4EC"/>
    <g stroke="#7F91A6" stroke-width="3" stroke-linecap="round">
      <line x1="60" y1="58" x2="119" y2="58"/>
      <line x1="60" y1="84" x2="119" y2="84"/>
      <line x1="60" y1="110" x2="119" y2="110"/>
    </g>
    <g stroke="#3B7BC6" stroke-width="4" stroke-linecap="round" stroke-linejoin="round">
      <path d="M50 55L56 62L67 47"/>
      <path d="M50 81L56 88L67 73"/>
      <path d="M50 107L56 114L67 99"/>
    </g>
    <ellipse cx="90" cy="148" rx="86" ry="12" fill="#E8EDF6"/>
    <text x="90" y="192" text-anchor="middle" font-family="Arial, sans-serif" font-size="18" font-weight="700" fill="#183D77">Tax History</text>
  </g>

  <line x1="70" y1="420" x2="830" y2="420" stroke="#E3E8F0" stroke-width="2"/>

  <g transform="translate(72 448)">
    <rect x="0" y="0" width="334" height="124" fill="#EFF5FF" stroke="#2C67B3" stroke-width="4"/>
    <text x="167" y="42" text-anchor="middle" font-family="Arial, sans-serif" font-size="30" font-weight="700" fill="#1E4F99">ML Model</text>
    <rect x="34" y="60" width="196" height="56" fill="#FCFCFD" stroke="#B7C7DA" stroke-width="2"/>
    <g stroke="#D0DAE8" stroke-width="2">
      <line x1="34" y1="78" x2="230" y2="78"/>
      <line x1="34" y1="96" x2="230" y2="96"/>
      <line x1="86" y1="60" x2="86" y2="116"/>
      <line x1="138" y1="60" x2="138" y2="116"/>
      <line x1="190" y1="60" x2="190" y2="116"/>
    </g>
    <circle cx="66" cy="88" r="12" fill="#FCFCFD" stroke="#1C4D96" stroke-width="4"/>
    <circle cx="104" cy="102" r="7" fill="#2E72C0"/>
    <circle cx="138" cy="84" r="7" fill="#FDB535"/>
    <circle cx="172" cy="70" r="7" fill="#5CB85C"/>
    <circle cx="198" cy="92" r="7" fill="#5CB85C"/>
    <rect x="212" y="70" width="14" height="14" fill="#7DD1E8" stroke="#2B8FB6" stroke-width="2"/>
    <rect x="212" y="90" width="14" height="14" fill="#7DD1E8" stroke="#2B8FB6" stroke-width="2"/>
    <g stroke="#4476B8" stroke-width="3">
      <line x1="66" y1="88" x2="104" y2="102"/>
      <line x1="104" y1="102" x2="138" y2="84"/>
      <line x1="138" y1="84" x2="172" y2="70"/>
      <line x1="138" y1="84" x2="198" y2="92"/>
    </g>
  </g>

  <g transform="translate(418 495)">
    <rect x="0" y="0" width="82" height="22" rx="11" fill="#3D74C5"/>
    <polygon points="82,11 56,-10 56,32" fill="#3D74C5"/>
  </g>

  <g transform="translate(520 440)">
    <rect x="44" y="78" width="228" height="40" rx="6" fill="#275A9C"/>
    <text x="158" y="106" text-anchor="middle" font-family="Arial, sans-serif" font-size="18" font-weight="700" fill="#FCFCFD">Estimated Price: $450,000</text>
    <rect x="64" y="28" width="190" height="74" fill="#F9D48A" stroke="#D59A3C" stroke-width="4"/>
    <polygon points="52,32 158,-18 266,32" fill="#CD6A46"/>
    <rect x="60" y="32" width="196" height="8" fill="#913D34"/>
    <rect x="92" y="54" width="34" height="28" fill="#B6E8F1" stroke="#5C9BCC" stroke-width="3"/>
    <rect x="194" y="54" width="34" height="28" fill="#B6E8F1" stroke="#5C9BCC" stroke-width="3"/>
    <rect x="154" y="58" width="24" height="44" fill="#C75C4A"/>
    <ellipse cx="158" cy="110" rx="126" ry="14" fill="#E8EDF6"/>
  </g>
</svg>
