<svg width="1200" height="760" viewBox="0 0 1200 760" fill="none" xmlns="http://www.w3.org/2000/svg">
  <rect width="1200" height="760" rx="36" fill="#121824"/>
  <rect x="56" y="56" width="1088" height="648" rx="30" fill="#171F2E" stroke="#2A3852" stroke-width="2"/>
  <text x="96" y="122" fill="#F5F7FB" font-family="Arial, sans-serif" font-size="42" font-weight="700">Inference Monitoring View</text>
  <text x="96" y="158" fill="#7DE5D3" font-family="Arial, sans-serif" font-size="22" font-weight="700" letter-spacing="3">ACCURACY TRENDS, TRAINING CYCLES, ACTIVATION SNAPSHOT</text>
  <rect x="96" y="212" width="250" height="110" rx="24" fill="#111A28" stroke="#304768" stroke-width="2"/>
  <text x="128" y="256" fill="#98F5E1" font-family="Arial, sans-serif" font-size="24" font-weight="700">Model Accuracy</text>
  <text x="128" y="300" fill="#F5F7FB" font-family="Arial, sans-serif" font-size="44" font-weight="700">94.6%</text>
  <rect x="378" y="212" width="250" height="110" rx="24" fill="#111A28" stroke="#304768" stroke-width="2"/>
  <text x="410" y="256" fill="#8FB8FF" font-family="Arial, sans-serif" font-size="24" font-weight="700">Training Epochs</text>
  <text x="410" y="300" fill="#F5F7FB" font-family="Arial, sans-serif" font-size="44" font-weight="700">50</text>
  <rect x="660" y="212" width="250" height="110" rx="24" fill="#111A28" stroke="#304768" stroke-width="2"/>
  <text x="692" y="256" fill="#FFD166" font-family="Arial, sans-serif" font-size="24" font-weight="700">Improvement</text>
  <text x="692" y="300" fill="#F5F7FB" font-family="Arial, sans-serif" font-size="44" font-weight="700">+39%</text>
  <rect x="96" y="364" width="680" height="260" rx="28" fill="#101827" stroke="#304768" stroke-width="2"/>
  <g stroke="#293B56" stroke-width="2">
    <line x1="150" y1="578" x2="734" y2="578"/><line x1="150" y1="520" x2="734" y2="520"/><line x1="150" y1="462" x2="734" y2="462"/><line x1="150" y1="404" x2="734" y2="404"/>
  </g>
  <polyline points="170,560 250,510 330,448 410,392 490,354 570,332 650,314 730,300" fill="none" stroke="#7DE5D3" stroke-width="8" stroke-linecap="round" stroke-linejoin="round"/>
  <g fill="#7DE5D3">
    <circle cx="170" cy="560" r="8"/><circle cx="250" cy="510" r="8"/><circle cx="330" cy="448" r="8"/><circle cx="410" cy="392" r="8"/><circle cx="490" cy="354" r="8"/><circle cx="570" cy="332" r="8"/><circle cx="650" cy="314" r="8"/><circle cx="730" cy="300" r="8"/>
  </g>
  <text x="150" y="652" fill="#D8E1EF" font-family="Arial, sans-serif" font-size="22">The curve shows how repeated training helps stabilize performance and improve prediction quality.</text>
  <rect x="814" y="364" width="232" height="260" rx="28" fill="#101827" stroke="#304768" stroke-width="2"/>
  <text x="848" y="410" fill="#F5F7FB" font-family="Arial, sans-serif" font-size="28" font-weight="700">Activation Snapshot</text>
  <rect x="848" y="446" width="164" height="32" rx="12" fill="#1E2E48"/>
  <rect x="848" y="496" width="134" height="32" rx="12" fill="#1E2E48"/>
  <rect x="848" y="546" width="188" height="32" rx="12" fill="#1E2E48"/>
  <text x="868" y="468" fill="#D8E1EF" font-family="Arial, sans-serif" font-size="18">Input signal activated</text>
  <text x="868" y="518" fill="#D8E1EF" font-family="Arial, sans-serif" font-size="18">Hidden nodes adjusted</text>
  <text x="868" y="568" fill="#D8E1EF" font-family="Arial, sans-serif" font-size="18">Prediction confidence increased</text>
</svg>
