<svg width="1200" height="760" viewBox="0 0 1200 760" fill="none" xmlns="http://www.w3.org/2000/svg">
  <rect width="1200" height="760" rx="30" fill="#FCFCFD"/>
  <text x="600" y="72" text-anchor="middle" fill="#262B36" font-family="Arial, sans-serif" font-size="33" font-weight="700">ML vs DL Across Common Decision Factors</text>
  <text x="100" y="164" fill="#6A7183" font-family="Arial, sans-serif" font-size="18">10</text>
  <text x="104" y="244" fill="#6A7183" font-family="Arial, sans-serif" font-size="18">8</text>
  <text x="104" y="324" fill="#6A7183" font-family="Arial, sans-serif" font-size="18">6</text>
  <text x="104" y="404" fill="#6A7183" font-family="Arial, sans-serif" font-size="18">4</text>
  <text x="104" y="484" fill="#6A7183" font-family="Arial, sans-serif" font-size="18">2</text>
  <text x="104" y="564" fill="#6A7183" font-family="Arial, sans-serif" font-size="18">0</text>
  <line x1="150" y1="150" x2="1080" y2="150" stroke="#E8ECF3" stroke-width="2"/>
  <line x1="150" y1="230" x2="1080" y2="230" stroke="#E8ECF3" stroke-width="2"/>
  <line x1="150" y1="310" x2="1080" y2="310" stroke="#E8ECF3" stroke-width="2"/>
  <line x1="150" y1="390" x2="1080" y2="390" stroke="#E8ECF3" stroke-width="2"/>
  <line x1="150" y1="470" x2="1080" y2="470" stroke="#E8ECF3" stroke-width="2"/>
  <line x1="150" y1="550" x2="1080" y2="550" stroke="#B8C1D2" stroke-width="3"/>
  <text x="250" y="620" text-anchor="middle" fill="#5F6678" font-family="Arial, sans-serif" font-size="19">Structured</text>
  <text x="250" y="646" text-anchor="middle" fill="#5F6678" font-family="Arial, sans-serif" font-size="19">Data</text>
  <text x="430" y="620" text-anchor="middle" fill="#5F6678" font-family="Arial, sans-serif" font-size="19">Interpretability</text>
  <text x="610" y="620" text-anchor="middle" fill="#5F6678" font-family="Arial, sans-serif" font-size="19">Speed</text>
  <text x="790" y="620" text-anchor="middle" fill="#5F6678" font-family="Arial, sans-serif" font-size="19">Image Tasks</text>
  <text x="970" y="620" text-anchor="middle" fill="#5F6678" font-family="Arial, sans-serif" font-size="19">Scalability</text>
  <rect x="208" y="198" width="38" height="352" rx="8" fill="#3C7B76"/>
  <rect x="252" y="350" width="38" height="200" rx="8" fill="#D1822F"/>
  <rect x="388" y="198" width="38" height="352" rx="8" fill="#3C7B76"/>
  <rect x="432" y="390" width="38" height="160" rx="8" fill="#D1822F"/>
  <rect x="568" y="238" width="38" height="312" rx="8" fill="#3C7B76"/>
  <rect x="612" y="390" width="38" height="160" rx="8" fill="#D1822F"/>
  <rect x="748" y="430" width="38" height="120" rx="8" fill="#3C7B76"/>
  <rect x="792" y="150" width="38" height="400" rx="8" fill="#D1822F"/>
  <rect x="928" y="310" width="38" height="240" rx="8" fill="#3C7B76"/>
  <rect x="972" y="190" width="38" height="360" rx="8" fill="#D1822F"/>
  <rect x="776" y="96" width="22" height="22" rx="5" fill="#3C7B76"/>
  <text x="810" y="113" fill="#565D70" font-family="Arial, sans-serif" font-size="18">Machine Learning</text>
  <rect x="988" y="96" width="22" height="22" rx="5" fill="#D1822F"/>
  <text x="1022" y="113" fill="#565D70" font-family="Arial, sans-serif" font-size="18">Deep Learning</text>
  <text transform="translate(44 414) rotate(-90)" fill="#697184" font-family="Arial, sans-serif" font-size="18">Conceptual Strength Score</text>
</svg>
