<svg width="1200" height="720" viewBox="0 0 1200 720" fill="none" xmlns="http://www.w3.org/2000/svg">
  <rect width="1200" height="720" fill="#FFFFFF"/>
  <text x="600" y="68" text-anchor="middle" font-family="Arial, sans-serif" font-size="34" font-weight="700" fill="#1F1D1A">Neural Network Accuracy Improves Over Training</text>
  <text x="86" y="370" transform="rotate(-90 86 370)" text-anchor="middle" font-family="Arial, sans-serif" font-size="22" fill="#665D54">Model Accuracy (%)</text>
  <text x="622" y="686" text-anchor="middle" font-family="Arial, sans-serif" font-size="22" fill="#665D54">Training Epochs</text>
  <line x1="150" y1="620" x2="1100" y2="620" stroke="#3F362C" stroke-width="2"/>
  <line x1="150" y1="130" x2="150" y2="620" stroke="#3F362C" stroke-width="2"/>
  <g stroke="#D8D3CB" stroke-width="1">
    <line x1="150" y1="620" x2="1100" y2="620"/>
    <line x1="150" y1="538" x2="1100" y2="538"/>
    <line x1="150" y1="456" x2="1100" y2="456"/>
    <line x1="150" y1="374" x2="1100" y2="374"/>
    <line x1="150" y1="292" x2="1100" y2="292"/>
    <line x1="150" y1="210" x2="1100" y2="210"/>
    <line x1="150" y1="130" x2="1100" y2="130"/>
  </g>
  <g font-family="Arial, sans-serif" font-size="18" fill="#665D54">
    <text x="128" y="626" text-anchor="end">50</text>
    <text x="128" y="544" text-anchor="end">58</text>
    <text x="128" y="462" text-anchor="end">66</text>
    <text x="128" y="380" text-anchor="end">74</text>
    <text x="128" y="298" text-anchor="end">82</text>
    <text x="128" y="216" text-anchor="end">90</text>
    <text x="128" y="136" text-anchor="end">98</text>
  </g>
  <g font-family="Arial, sans-serif" font-size="18" fill="#1F1D1A">
    <text x="170" y="654" text-anchor="middle">1</text>
    <text x="322" y="654" text-anchor="middle">5</text>
    <text x="474" y="654" text-anchor="middle">10</text>
    <text x="626" y="654" text-anchor="middle">20</text>
    <text x="778" y="654" text-anchor="middle">30</text>
    <text x="930" y="654" text-anchor="middle">40</text>
    <text x="1082" y="654" text-anchor="middle">50</text>
  </g>
  <polyline points="170,568 322,478 474,388 626,300 778,248 930,214 1082,186" fill="none" stroke="#0F766E" stroke-width="7" stroke-linecap="round" stroke-linejoin="round"/>
  <g fill="#0F766E">
    <circle cx="170" cy="568" r="8"/>
    <circle cx="322" cy="478" r="8"/>
    <circle cx="474" cy="388" r="8"/>
    <circle cx="626" cy="300" r="8"/>
    <circle cx="778" cy="248" r="8"/>
    <circle cx="930" cy="214" r="8"/>
    <circle cx="1082" cy="186" r="8"/>
  </g>
  <rect x="760" y="96" width="300" height="72" rx="18" fill="#F5FBFA" stroke="#D9F3EE"/>
  <text x="910" y="124" text-anchor="middle" font-family="Arial, sans-serif" font-size="18" font-weight="700" fill="#114B5F">Key Insight</text>
  <text x="910" y="150" text-anchor="middle" font-family="Arial, sans-serif" font-size="16" fill="#665D54">The network improves as it learns patterns</text>
</svg>
